# xmcd
#
# Track frame offsets:
#	150
#	18171
#	37365
#	51806
#	68499
#	88275
#	110300
#	122683
#	142952
#	160413
#	172443
#
# Disc length: 2598 seconds
# Revision: 0
# Processed by: cddbd v1.5.2PL0 Copyright (c) Steve Scherf et al.
# Submitted via: dBpowerAMP V12.0
#
DISCID=9a0a240b
DTITLE=Charlie Parr - Charlie Parr
DYEAR=2019
DGENRE=Blues
TTITLE0=Love Is An Unraveling Bird's Nest
TTITLE1=To A Scrapyard Bus Stop
TTITLE2=On Stealing A Sailboat
TTITLE3=Asa Jones' Blues
TTITLE4=Running Jumping Standing Still
TTITLE5=Mag Wheels
TTITLE6=Annie Melton
TTITLE7=Heavy
TTITLE8=Twenty-Five Forty-One
TTITLE9=Jubilee
TTITLE10=Cheap Wine
EXTD=
EXTT0=
EXTT1=
EXTT2=
EXTT3=
EXTT4=
EXTT5=
EXTT6=
EXTT7=
EXTT8=
EXTT9=
EXTT10=
PLAYORDER=
